<svg xmlns="http://www.w3.org/2000/svg" xmlns:xlink="http://www.w3.org/1999/xlink" id="Layer_1" x="0px" y="0px" viewBox="0 0 300 300" style="enable-background:new 0 0 300 300;" xml:space="preserve"> <style type="text/css"> .st0{fill-rule:evenodd;clip-rule:evenodd;fill:#F7EA28;} .st1{fill-rule:evenodd;clip-rule:evenodd;fill:#F38521;} .st2{fill-rule:evenodd;clip-rule:evenodd;fill:#F38825;} .st3{fill-rule:evenodd;clip-rule:evenodd;fill:#F49138;} .st4{fill-rule:evenodd;clip-rule:evenodd;fill:#F49136;} .st5{fill-rule:evenodd;clip-rule:evenodd;fill:#F59A49;} .st6{fill-rule:evenodd;clip-rule:evenodd;fill:#F48B2A;} .st7{fill-rule:evenodd;clip-rule:evenodd;fill:#F5953F;} .st8{fill-rule:evenodd;clip-rule:evenodd;fill:#F59A47;} .st9{fill-rule:evenodd;clip-rule:evenodd;fill:#F69E51;} .st10{fill-rule:evenodd;clip-rule:evenodd;fill:#F6A158;} .st11{fill-rule:evenodd;clip-rule:evenodd;fill:#FDF3EB;} .st12{fill-rule:evenodd;clip-rule:evenodd;fill:#F6A054;} .st13{fill-rule:evenodd;clip-rule:evenodd;fill:#F58A29;} .st14{fill-rule:evenodd;clip-rule:evenodd;fill:#89C340;} .st15{fill-rule:evenodd;clip-rule:evenodd;fill:#87C340;} .st16{fill-rule:evenodd;clip-rule:evenodd;fill:#F38321;} .st17{fill-rule:evenodd;clip-rule:evenodd;fill:#F48E32;} .st18{fill-rule:evenodd;clip-rule:evenodd;fill:#F48F31;} .st19{fill-rule:evenodd;clip-rule:evenodd;fill:#F38320;} .st20{fill-rule:evenodd;clip-rule:evenodd;fill:#F48B2B;} .st21{fill-rule:evenodd;clip-rule:evenodd;fill:#F48E2F;} .st22{fill-rule:evenodd;clip-rule:evenodd;fill:#F48F34;} .st23{fill-rule:evenodd;clip-rule:evenodd;fill:#F38323;} </style> <g> <g> <path class="st0" d="M132.73,65.42c-0.75-0.53-1.49-0.87-1.98-1.44c-0.35-0.4,0.26-0.85,0.52-1.21c2.7-3.99,5.98-7.5,8.99-11.23 c0.93-1.14,1.8-2.32,2.72-3.45c0.23-0.31,0.56-0.73,1-0.45c0.47,0.31,0.13,0.79-0.08,1.08c-3.66,4.94-6.36,10.5-10.06,15.42 C133.5,64.56,133.11,64.96,132.73,65.42z"></path> <path class="st0" d="M133.26,66.08c2.88-3.55,5.02-7.22,7.29-10.84c1.6,2.2,1.59,4.74-0.11,6.75c-0.86,1.03-1.46,2.16-1.62,3.48 c-0.05,0.46-0.21,0.62-0.67,0.62C136.62,66.07,135.08,66.08,133.26,66.08z"></path> <path class="st0" d="M131.11,61.76c-1.46-1.77-1.58-4.15-0.43-6.09c1.18-1.99,4.05-3.55,7.16-2.51 C135.61,56.08,133.16,58.74,131.11,61.76z"></path> <path class="st0" d="M124.9,72.8c0.55-2.14,1.47-4.38,3.53-5.9c0.76-0.56,1.21,0.52,1.83,0.76c0.49,0.16,0.47,0.5,0.3,0.96 c-0.81,2.29-2.37,3.95-4.33,5.26C125.43,74.43,124.87,74.06,124.9,72.8z"></path> <path class="st0" d="M131.16,67.42c-0.26,0.02-2.04-1.27-1.98-1.38c0.33-0.54,0.52-1.19,1.11-1.5c0.15-0.09,1.98,1.22,1.91,1.37 C131.94,66.47,131.62,67.03,131.16,67.42z"></path> <path class="st0" d="M133.7,67.69c-0.59-0.47-0.72-0.89,0.19-0.94c1.28-0.08,2.57-0.04,3.86-0.02c0.82,0.02,0.72,0.43,0.33,0.93 C136.62,68.26,135.15,68.2,133.7,67.69z"></path> <path class="st0" d="M138.08,67.94c0.52,0.59,0.29,0.88-0.39,0.9c-1.26,0.02-2.53,0.07-3.79-0.01c-0.83-0.04-0.89-0.44-0.2-0.93 C135.15,67.78,136.62,67.72,138.08,67.94z"></path> <path class="st0" d="M127.73,47.33c1.22,1.57,2.44,3.15,3.65,4.72c-0.11,0.11-0.25,0.21-0.38,0.3c-1.21-1.58-2.44-3.15-3.67-4.72 C127.47,47.53,127.61,47.42,127.73,47.33z"></path> <path class="st0" d="M135.88,50.9c-0.23-1.92-0.38-3.86-0.07-5.78C136.11,47.04,136.12,48.96,135.88,50.9z"></path> <path class="st0" d="M135.81,69.18c0.44,0.13,1.26-0.28,1.22,0.55c-0.03,0.62-0.78,0.39-1.22,0.39c-0.44-0.02-1.19,0.23-1.21-0.4 C134.55,68.91,135.36,69.3,135.81,69.18z"></path> <path class="st0" d="M127.08,60.6c-1.23,0.57-2.47,1.17-3.78,1.54c-0.05-0.13-0.11-0.27-0.16-0.4c1.2-0.48,2.42-0.96,3.62-1.45 C127.07,60.2,127.12,60.34,127.08,60.6z"></path> <path class="st0" d="M144.77,60.3c1.2,0.49,2.41,0.97,3.62,1.45c-0.05,0.12-0.1,0.27-0.16,0.4c-1.3-0.37-2.54-0.97-3.78-1.54 C144.41,60.34,144.47,60.2,144.77,60.3z"></path> <path class="st0" d="M146.15,54.7c-1.03,0.32-2,0.85-3.14,0.84c0.75-0.69,1.67-0.85,2.59-1.09 C145.86,54.38,146.14,54.23,146.15,54.7z"></path> <path class="st0" d="M126.11,54.95c-0.87-0.2-1.73-0.45-2.51-0.9c0.03-0.16,0.19-0.18,0.29-0.27c0.97,0.18,1.88,0.52,2.76,0.92 C126.55,54.95,126.28,54.85,126.11,54.95z"></path> <path class="st0" d="M126.11,54.95c0.13-0.2,0.34-0.23,0.54-0.25c0.69,0.11,1.35,0.28,2.18,0.86 C127.63,55.7,126.9,55.19,126.11,54.95z"></path> <path class="st0" d="M138.08,67.94c-1.46-0.02-2.93-0.02-4.38-0.03c0-0.09,0-0.16,0-0.22c1.45-0.02,2.91-0.02,4.38-0.03 C138.08,67.76,138.08,67.84,138.08,67.94z"></path> <path class="st0" d="M146.15,54.7c-0.11-0.21-0.34-0.22-0.55-0.26c0.64-0.35,1.32-0.56,2.04-0.67c0.11,0.09,0.27,0.11,0.29,0.27 C147.39,54.39,146.78,54.56,146.15,54.7z"></path> <path class="st0" d="M144.77,60.3c-0.1,0.11-0.22,0.19-0.33,0.3c-0.45-0.06-0.84-0.24-1.37-0.67 C143.88,59.72,144.32,60.06,144.77,60.3z"></path> <path class="st0" d="M127.08,60.6c-0.09-0.11-0.21-0.2-0.31-0.3c0.43-0.27,0.87-0.54,1.52-0.44 C128.03,60.47,127.51,60.47,127.08,60.6z"></path> <path class="st0" d="M147.93,54.04c-0.09-0.09-0.19-0.18-0.29-0.27c0.28-0.07,0.68-0.38,0.82-0.08 C148.63,54.09,148.15,53.97,147.93,54.04z"></path> <path class="st0" d="M123.89,53.77c-0.1,0.09-0.2,0.18-0.29,0.27c-0.22-0.07-0.7,0.05-0.52-0.35 C123.22,53.39,123.61,53.71,123.89,53.77z"></path> <g> <path class="st0" d="M135.2,211.51c-3.42-0.08-6.8-0.5-10.04-1.71c-1.04-0.41-2.02-0.9-2.84-1.65c-0.93-0.86-1.11-1.87-0.59-3 c0.45-1,1.51-1.49,2.77-1.29c1.22,0.22,2.26,0.89,3.36,1.4c3.06,1.44,6.24,2.03,9.62,1.63c4.1-0.52,7.27-3.16,8-6.81 c0.56-2.81-0.3-4.84-2.76-6.32c-2.55-1.54-5.42-2.2-8.22-3.03c-2.65-0.8-5.31-1.57-7.72-2.97c-5.68-3.3-6.54-9.81-1.85-14.41 c3.91-3.82,8.78-4.72,14.01-4.3c2.37,0.19,4.69,0.63,6.86,1.61c0.87,0.38,1.69,0.82,2.36,1.5c0.69,0.68,1.04,1.49,0.65,2.43 c-0.37,0.9-1.11,1.36-2.07,1.48c-1.35,0.18-2.46-0.43-3.58-1.03c-3.11-1.68-6.4-2.05-9.82-1.19c-1.44,0.38-2.72,1.1-3.65,2.31 c-1.82,2.32-1.45,5.22,0.88,7c1.75,1.34,3.82,1.97,5.88,2.62c2.32,0.75,4.65,1.47,6.97,2.21c0.58,0.2,1.14,0.46,1.7,0.69 c3.75,1.64,6.68,4.03,7.09,8.42c0.43,4.64-1.47,8.33-5.2,11.06C143.51,210.72,139.46,211.45,135.2,211.51z"></path> <path class="st0" d="M262.54,190.21c0-5.91-0.01-11.81,0-17.71c0-2.26,0.94-3.28,3.14-3.29c5.99-0.03,11.98-0.03,17.96,0 c1.97,0.01,2.97,0.9,2.95,2.48c-0.02,1.13-0.6,1.81-1.65,2.16c-0.67,0.2-1.35,0.2-2.06,0.2c-4.41-0.01-8.8,0.03-13.19-0.01 c-0.8,0-1.03,0.2-1.02,1c0.04,3.91,0.04,7.83,0,11.73c-0.01,0.8,0.2,1.04,1.01,1.03c4.08-0.04,8.15-0.03,12.22-0.02 c2.26,0,3.41,0.84,3.4,2.44c-0.03,1.58-1.18,2.4-3.46,2.4c-4.04,0.01-8.07,0.03-12.09-0.02c-0.87,0-1.09,0.25-1.08,1.1 c0.05,3.86,0.07,7.74,0,11.6c-0.01,0.97,0.31,1.13,1.17,1.11c4.37-0.05,8.72-0.02,13.08-0.02c0.69-0.01,1.38,0.01,2.05,0.23 c1.04,0.33,1.6,1.04,1.62,2.17c0,1.12-0.49,1.86-1.53,2.22c-0.55,0.21-1.12,0.25-1.68,0.25c-5.79,0-11.58,0.01-17.36,0 c-2.55-0.01-3.47-0.95-3.47-3.45C262.54,201.95,262.54,196.08,262.54,190.21z"></path> <path class="st0" d="M231.23,190.19c0-5.91,0-11.82,0-17.72c0.01-2.27,0.97-3.26,3.28-3.28c5.91-0.03,11.81-0.03,17.72,0 c2.07,0,3.09,0.88,3.06,2.5c-0.02,1.08-0.55,1.77-1.54,2.1c-0.65,0.24-1.35,0.25-2.04,0.25c-4.41-0.01-8.81,0.03-13.21-0.01 c-0.78,0-1.13,0.09-1.12,1.02c0.05,3.92,0.04,7.83,0,11.74c-0.02,0.82,0.24,1.01,1.02,1c4.07-0.04,8.15-0.03,12.23-0.02 c2.25,0,3.4,0.85,3.37,2.45c-0.03,1.55-1.17,2.4-3.34,2.4c-4.03,0.02-8.07,0.03-12.1-0.02c-0.84-0.01-1.2,0.11-1.18,1.1 c0.06,3.83,0.05,7.66,0,11.49c-0.02,0.92,0.19,1.23,1.18,1.21c4.36-0.06,8.72-0.02,13.07-0.03c0.74,0,1.47,0.03,2.17,0.27 c0.99,0.37,1.49,1.08,1.49,2.15c0.01,1.06-0.45,1.79-1.43,2.18c-0.58,0.22-1.19,0.28-1.8,0.27c-5.78,0-11.57,0.01-17.36,0 c-2.53-0.01-3.45-0.96-3.45-3.47C231.23,201.92,231.23,196.05,231.23,190.19z"></path> <path class="st0" d="M53.67,190.14c0-5.86,0-11.73,0.01-17.59c0-2.37,0.94-3.35,3.31-3.35c5.91-0.03,11.83-0.03,17.73,0 c2.05,0.01,3.06,0.9,3.01,2.54c-0.03,1.08-0.59,1.75-1.58,2.07c-0.67,0.23-1.36,0.23-2.06,0.23c-4.4-0.01-8.79,0.03-13.19-0.01 c-0.86-0.01-1.11,0.2-1.1,1.06c0.05,3.87,0.05,7.75,0,11.61c0,0.86,0.21,1.1,1.07,1.09c3.95-0.05,7.91-0.02,11.85-0.02 c0.28,0,0.58-0.02,0.87,0c1.77,0.08,2.81,0.94,2.84,2.38c0.02,1.46-1.04,2.42-2.9,2.44c-3.58,0.06-7.17,0.02-10.76,0.02 c-2.94,0-2.94,0-2.94,2.97c0,3.13,0.07,6.27-0.04,9.4c-0.04,1.24,0.37,1.44,1.49,1.43c4.28-0.08,8.56-0.03,12.84-0.04 c0.7,0,1.4,0.03,2.05,0.24c0.99,0.35,1.53,1.01,1.56,2.1c0.03,1.12-0.44,1.88-1.48,2.27c-0.53,0.2-1.1,0.26-1.68,0.26 c-5.82,0-11.65,0.01-17.48,0c-2.52-0.01-3.41-0.97-3.42-3.51C53.67,201.89,53.67,196.01,53.67,190.14z"></path> <path class="st0" d="M100.38,202.9c1.89-4.55,3.65-8.83,5.44-13.11c2.51-6.03,5.03-12.07,7.53-18.11 c0.67-1.65,1.65-2.81,3.6-2.75c1.95,0.08,2.93,1.23,2.56,3.11c-0.09,0.45-0.24,0.87-0.42,1.28 c-5.07,11.85-10.14,23.7-15.21,35.54c-0.59,1.39-1.39,2.48-3.05,2.62c-1.88,0.16-3.01-0.48-3.83-2.33 c-1.76-4.04-3.47-8.06-5.2-12.11c-3.29-7.7-6.59-15.39-9.9-23.09c-0.15-0.37-0.32-0.75-0.46-1.14c-0.62-1.76-0.35-2.86,0.87-3.52 c1.47-0.79,3.46-0.37,4.35,0.99c0.44,0.67,0.76,1.44,1.07,2.2c4,9.6,7.99,19.21,11.97,28.82 C99.88,201.78,100.08,202.21,100.38,202.9z"></path> <path class="st0" d="M178,191.81c0,5.5,0,11.01,0,16.5c0,2.69-2.51,4.11-4.86,2.75c-1-0.56-1.3-1.48-1.3-2.58 c0.01-5.14,0-10.28,0-15.4c0-5.98-0.01-11.98,0.02-17.97c0.01-0.86-0.21-1.1-1.08-1.08c-2.77,0.06-5.53,0.03-8.3,0 c-1.73-0.02-2.66-0.66-2.93-1.86c-0.3-1.31,0.28-2.37,1.57-2.76c0.45-0.14,0.96-0.21,1.44-0.21c8.22-0.02,16.46-0.02,24.7-0.02 c0.57,0,1.14,0.06,1.68,0.27c0.97,0.39,1.46,1.14,1.46,2.19c-0.01,1.04-0.54,1.78-1.52,2.14c-0.6,0.23-1.26,0.26-1.92,0.26 c-2.67-0.01-5.31,0.04-7.95-0.01c-0.81-0.02-1.03,0.22-1.03,1.02C178,180.66,178,186.24,178,191.81z"></path> <path class="st0" d="M214.49,79.61c-3.04-0.86-6.13-1.1-9.27-0.97c-0.05-0.46,0.23-0.69,0.39-0.96 c3.72-6.23,5.04-12.94,3.49-20.06c-3.2-14.74-16.01-23.9-31.03-22.18c-6.5,0.75-12,3.71-16.54,8.42 c-0.26,0.28-0.67,0.51-0.35,1.01c0.96,1.48,1.67,3.1,2.49,4.76c0.31-0.36,0.51-0.6,0.72-0.85c5.05-5.94,11.43-8.69,19.24-8.04 c16.38,1.36,25.82,19.15,17.72,33.44c-1.89,3.36-4.39,6.09-7.9,7.93c-4.86,2.54-8.49,6.39-11.1,11.21 c-0.18,0.32-0.25,0.72-0.63,0.94c-10.56-21.07-39.55-20.21-49.41-1.92c-0.2-0.41-0.39-0.82-0.58-1.23 c-2.52-5.31-6.31-9.44-11.38-12.41c-0.9-0.52-1.69-1.13-2.39-1.88c-5.1-5.45-6.96-11.9-5.79-19.25 c1.92-12.12,13.88-20.64,25.88-18.42c14.44,2.66,22.51,17.23,17.12,30.87c-0.15,0.38-0.36,0.74-0.23,1.16 c0.61,2.04,1.4,3.99,2.53,5.82c6.46-8.95,6.91-22.44-1.09-32.75c-8.07-10.38-22-13.79-33.82-8.22 c-7.34,3.45-12.27,9.15-14.81,16.84c-2.56,7.69-1.62,15.11,2.2,22.27c-2.5-0.17-4.82-0.25-7.13,0.05 c-16.3,2.07-27.4,17.86-23.78,33.84c2.89,12.8,14.19,21.82,27.39,21.84c8.54,0.02,15.56-3.32,21.14-9.74 c0.31-0.36,0.73-0.67,0.43-1.26c-0.87-1.75-1.46-3.6-2.01-5.47c-0.5,0.17-0.61,0.61-0.82,0.92c-1.42,2.17-3.13,4.08-5.18,5.65 c-7.07,5.4-17.03,6.04-24.97,1.38c-8.31-4.89-11.94-12.35-11.01-21.87C85.1,89.45,94.28,81,105.16,80.39 c12.54-0.7,24.26,9.69,23.66,23.04c-0.08,1.54-0.37,3.07-0.22,4.63c1.01,10.9,6.35,18.86,16.15,23.77 c0.65,0.34,0.97,0.74,1.17,1.41c0.8,2.61,1.62,5.2,2.5,7.79c0.28,0.8,0.3,1.56,0.1,2.36c-0.79,3.45-1.7,6.88-2.29,10.36 c-0.35,2.04-1.12,2.92-3.26,3.29c-4.1,0.7-8.04,2.03-11.47,4.57c-0.85,0.64-1.65,1.33-2.14,2.27c18.28-6.14,36.48-6.24,54.6,0.02 c-0.65-1.22-1.9-2.36-4.01-3.53c-3.05-1.72-6.35-2.74-9.75-3.42c-0.79-0.18-1.24-0.37-1.4-1.33c-0.64-3.68-1.4-7.35-2.13-11.01 c-0.18-0.91-0.43-1.8-0.19-2.76c0.79-3.08,1.55-6.15,2.26-9.25c0.19-0.77,0.55-1.23,1.25-1.63c9.4-5.46,14.33-13.69,14.48-24.55 c0.16-12.76,10.33-22.76,23.06-22.4c14.52,0.42,24.76,13.75,21.4,27.87c-2.16,9.01-9.52,15.64-18.78,16.9 c-9.67,1.33-18.3-2.95-22.88-11.33c-0.19-0.36-0.38-0.71-0.66-1.23c-0.7,1.83-1.28,3.5-2.21,4.98c-0.56,0.87-0.35,1.43,0.2,2.14 c6.57,8.39,15.11,12.11,25.7,10.88c13.01-1.5,22.95-11.48,24.44-24.45C236.32,96.06,227.79,83.38,214.49,79.61z M173.52,121.5 c-2.38,2.89-5.52,4.79-9.01,6.08c-0.65,0.25-0.94,0.52-1.03,1.26c-0.49,3.96-1.11,7.9-1.59,11.87c-0.24,1.92,0.32,3.79,0.53,5.69 c0.31,2.84,0.7,5.66,1.08,8.49c0.1,0.74,0.06,1.05-0.91,0.97c-3.49-0.33-7-0.39-10.49-0.1c-0.87,0.07-1.11-0.07-0.93-1.04 c0.73-3.96,1.38-7.92,2.03-11.89c0.21-1.38-0.26-2.67-0.47-3.99c-0.47-3.1-1.02-6.2-1.5-9.28c-0.14-0.84-0.45-1.26-1.36-1.54 c-9.07-2.67-15.21-10.36-15.7-19.55c-0.53-10.31,4.57-19.15,13.16-22.79c2.7-1.13,5.66-1.69,8.95-1.7 c9.41,0.23,16.65,4.18,20.52,12.95C180.66,105.62,179.72,114.02,173.52,121.5z"></path> <path class="st0" d="M28.8,169.42c-5.38-0.48-10.75-0.17-16.12-0.2c-2.05-0.01-2.99,1.09-3,3.19c0,5.9,0,11.82,0,17.72 c0,5.98-0.01,11.97,0,17.96c0.01,2.01,0.95,3.14,2.93,3.12c5.66-0.04,11.33,0.38,16.97-0.23c5.58-0.6,10.31-2.94,13.72-7.54 c3.09-4.16,4.12-8.96,4.04-14.06C47.21,178.55,39.59,170.36,28.8,169.42z M39.24,197.96c-2.16,5.17-6.19,7.93-11.65,8.62 c-3.65,0.46-7.33,0.13-10.99,0.23c-0.86,0.02-0.76-0.51-0.76-1.04c0-5.23,0-10.43,0-15.64c0-5.13,0-10.25,0.01-15.38 c0-0.47-0.23-1.14,0.68-1.11c3.98,0.11,7.98-0.29,11.94,0.41c6.65,1.18,11.11,5.84,12.03,12.54 C41.03,190.49,40.77,194.32,39.24,197.96z"></path> <path class="st0" d="M225.1,207.7c-0.55-0.66-1.22-1.2-1.84-1.78c-4.79-4.41-9.6-8.82-14.7-13.5c0.9,0,1.4,0.01,1.91,0 c3.13-0.06,6.14-0.51,8.99-1.92c5.97-2.96,7.82-12.77,1.65-17.54c-2.52-1.95-5.35-3.14-8.48-3.5c-4.99-0.57-10.01-0.2-15.02-0.21 c-1.91-0.01-2.8,1.12-2.8,3.08c-0.01,6.36-0.01,12.71-0.01,19.07c0,5.7,0.01,11.41,0,17.11c0,1.11,0.29,2.01,1.28,2.57 c2.35,1.35,4.88-0.09,4.88-2.77c0.01-4.76,0-9.54,0.01-14.3c0-0.35-0.19-0.73,0.21-1.04c0.76,0.69,1.51,1.38,2.26,2.06 c5.53,5.06,11.07,10.12,16.58,15.19c1.13,1.04,2.38,1.57,3.91,1.15C225.81,210.85,226.36,209.2,225.1,207.7z M201.69,188.57 c-0.73,0-0.75-0.36-0.75-0.91c0.02-2.23,0.01-4.47,0.01-6.72c0-2.15,0.01-4.31-0.01-6.45c-0.02-0.62,0.13-0.89,0.8-0.86 c3.13,0.09,6.26-0.16,9.39,0.17c1.31,0.16,2.55,0.54,3.71,1.15c4.72,2.45,4.58,7.35,2.8,10.43c-1.33,2.35-3.75,2.94-6.18,3.06 C208.21,188.62,204.94,188.51,201.69,188.57z"></path> </g> <path class="st0" d="M188.99,57.33c0.12-0.41,0.43-0.88-0.07-1.24c-0.38-0.29-0.78-0.09-1.14,0.1c-0.59,0.32-1.16,0.25-1.77,0.04 c-0.53-0.18-1.12-0.3-1.67-0.31c-4.9-0.25-9.5,4.36-9.33,9.27c0.11,3.06,2.29,4.87,5.31,4.41c1.41-0.22,2.62-0.82,3.63-1.88 c0.46,1.5,1.14,2.01,2.65,1.96c0.82-0.01,1.61-0.2,2.34-0.59c2.26-1.23,3.69-3.16,4.7-5.44c2.79-6.23-0.59-12.51-7.31-13.59 c-5.91-0.96-12.3,2.24-15.14,7.67c-2.09,4.02-2.59,8.17-0.28,12.26c2.75,4.82,8.79,6.77,14.43,4.77c1.89-0.67,3.69-1.52,5.08-3.04 c0.33-0.36,0.66-0.78,0.25-1.28c-0.4-0.5-0.86-0.37-1.32-0.09c-0.3,0.2-0.62,0.39-0.92,0.6c-1.57,1.06-3.26,1.85-5.11,2.24 c-4.66,1-9.02-1.43-10.55-5.94c-1.6-4.72,0.9-10.85,5.57-13.71c2.48-1.51,5.18-2.03,7.98-1.32c2.79,0.69,4.61,2.58,5.23,5.39 c0.74,3.34,0.02,6.38-2.33,8.92c-0.6,0.64-1.45,1.41-2.34,0.87c-0.92-0.57-0.24-1.56-0.03-2.32 C187.52,62.48,188.29,59.91,188.99,57.33z M185.55,60.25c-0.41,1.45-0.73,2.92-1.39,4.27c-0.53,1.08-1.21,2.04-2.35,2.54 c-2.31,1.03-4.03-0.11-3.92-2.61c0.12-3.29,2.28-6.02,5.07-6.43c0.31-0.06,0.65-0.09,0.97-0.06 C185.9,58.09,186.1,58.39,185.55,60.25z"></path> <path class="st0" d="M121.87,102.47c-0.52-2.16-1.67-3.95-2.78-5.79c-1.59-2.62-3.7-4.7-6.26-6.41c-2.57-1.73-7.89-0.1-7.53,3.52 c0.08,0.66-0.38,1-0.91,1.31c-1.79,1.07-3.58,2.12-5.32,3.24c-0.62,0.39-1.16,0.39-1.82,0.16c-3.13-1.08-6.37,1.25-6.37,4.57 c-0.01,3.1,0.99,5.92,2.44,8.59c1.07,1.97,2.2,3.91,3.94,5.39c2.25,1.92,5.09,1.04,5.91-1.78c0.28-1.01,0.19-2.02,0.26-2.91 c0.02-2.73-0.01-2.74,0.63-3.45c1.94-2.18,4.38-3.6,7.16-4.46c0.85-0.25,1.64-0.13,2.43,0.4c1.22,0.82,2.56,1.38,3.99,1.78 C120.28,107.41,122.36,104.57,121.87,102.47z M119.71,104.69c-0.8,0.74-1.74,0.56-2.62,0.16c-0.89-0.41-1.82-0.75-2.62-1.3 c-1.35-0.92-2.7-0.93-4.16-0.42c-2.9,1-5.39,2.59-7.5,4.82c-1.14,1.21-0.93,2.61-0.9,3.84c-0.03,1.13,0.04,2.05-0.21,2.97 c-0.5,1.88-2.06,2.38-3.49,1.07c-1.74-1.6-2.8-3.69-3.92-5.7c-1.01-1.83-1.54-3.83-1.87-5.9c-0.26-1.71,0.26-3.03,1.67-4.02 c0.83-0.59,1.67-0.82,2.6-0.3c1.08,0.58,2.09,0.4,3.11-0.24c1.85-1.16,3.73-2.28,5.61-3.41c0.86-0.52,1.33-1.21,1.4-2.28 c0.17-2.23,2.72-3.6,4.78-2.58c2.5,1.26,4.33,3.25,5.84,5.57c1.01,1.57,2.02,3.15,2.68,4.92 C120.49,102.92,120.59,103.89,119.71,104.69z"></path> <path class="st0" d="M218.59,100.99c-2.93-2.38-5.87-4.79-8.84-7.1c-1.21-0.96-2.45-0.75-3.42,0.45 c-3.77,4.66-7.53,9.33-11.27,13.99c-1.09,1.35-0.9,2.51,0.44,3.57c2.76,2.22,5.52,4.43,8.26,6.66c1.4,1.15,2.55,1.09,3.68-0.31 c3.77-4.66,7.51-9.33,11.29-13.99c0.36-0.45,0.65-0.93,0.61-1.57C219.38,102.01,219.11,101.43,218.59,100.99z M204.89,117.6 c-2.89-2.29-5.76-4.64-8.65-6.94c-0.78-0.63-0.28-1.09,0.11-1.64c0.45-0.64,0.77-0.42,1.25-0.03c2.83,2.31,5.7,4.58,8.54,6.9 c0.28,0.21,0.64,0.36,0.68,0.75C206.77,117.49,205.54,118.12,204.89,117.6z M215.88,105.5c-2.64,3.31-5.3,6.59-7.93,9.91 c-0.38,0.48-0.62,0.57-1.14,0.13c-2.82-2.33-5.66-4.61-8.54-6.86c-0.77-0.61-0.83-1.02-0.18-1.81c2.58-3.12,5.12-6.31,7.63-9.51 c0.47-0.58,0.77-0.62,1.35-0.13c2.89,2.37,5.82,4.7,8.73,7.06c0.2,0.16,0.5,0.28,0.51,0.67 C216.18,105.12,216.04,105.32,215.88,105.5z M217.03,104.03c-0.4,0.32-0.63-0.22-0.88-0.42c-2.88-2.29-5.75-4.62-8.62-6.93 c-0.43-0.34-0.89-0.56-0.28-1.18c0.51-0.52,0.88-1.08,1.69-0.41c2.03,1.67,4.11,3.3,6.16,4.96c0.79,0.63,1.59,1.26,2.38,1.89 c0.25,0.21,0.48,0.45,0.45,0.92C217.8,103.3,217.44,103.72,217.03,104.03z"></path> <path class="st0" d="M164.23,99.48c-0.57-0.06-0.94-0.31-1.13-0.74c-0.2-0.43-0.17-0.89,0.18-1.25c1.1-1.12,2.22-2.25,3.37-3.33 c0.48-0.45,1.07-0.36,1.55,0.08c0.47,0.44,0.63,1.03,0.17,1.51c-1.14,1.22-2.34,2.36-3.54,3.52 C164.67,99.42,164.39,99.42,164.23,99.48z"></path> <path class="st0" d="M157.69,93.34c0,0.65,0,1.3,0,1.96c-0.01,0.82-0.42,1.32-1.25,1.32c-0.75,0-1.18-0.5-1.2-1.24 c-0.03-1.47-0.03-2.91,0-4.37c0.02-0.75,0.52-1.23,1.25-1.22c0.74,0.01,1.18,0.49,1.19,1.26 C157.69,91.82,157.69,92.59,157.69,93.34z"></path> <path class="st0" d="M150.32,98.16c0,0.57-0.24,0.92-0.66,1.17c-0.44,0.25-0.9,0.22-1.25-0.11c-1.17-1.13-2.32-2.26-3.45-3.43 c-0.42-0.44-0.35-0.98,0.06-1.44c0.38-0.44,0.92-0.7,1.41-0.32c1.4,1.1,2.64,2.38,3.78,3.75 C150.32,97.88,150.32,98.08,150.32,98.16z"></path> <path class="st0" d="M201.89,113.56c-0.06,0.21-0.21,0.38-0.43,0.31c-0.38-0.12-0.73-0.36-0.79-0.8c-0.02-0.19,0.12-0.4,0.38-0.31 C201.43,112.94,201.73,113.19,201.89,113.56z"></path> <path class="st0" d="M211.77,98.28c0.63,0.56,1.44,0.9,1.86,1.65c0.16,0.28-0.18,0.56-0.5,0.32c-0.58-0.41-1.12-0.89-1.67-1.36 c-0.12-0.1-0.18-0.29-0.04-0.42C211.5,98.4,211.61,98.37,211.77,98.28z"></path> <path class="st0" d="M165.22,108.6c0.12-4.28-2.88-7.99-7.18-8.95c-4.15-0.92-8.45,1.25-10.19,5.14c-1.6,3.6-0.65,6.76,1.84,9.57 c1.03,1.13,1.54,2.33,1.44,3.86c-0.06,1.05-0.04,2.11,0,3.18c0.05,1.61,1.07,2.66,2.69,2.74c0.77,0.04,1.55,0.01,2.32,0.01 c0.74,0,1.46,0.03,2.2,0c1.77-0.07,2.77-1.1,2.8-2.86c0.01-1.01,0.03-2.04-0.01-3.06c-0.07-1.45,0.4-2.66,1.39-3.77 C164,112.8,165.15,110.92,165.22,108.6z M158.49,122.38c-1.06,0.04-2.11,0.02-3.16,0.02c-0.57,0-1.14,0.03-1.7-0.04 c-0.5-0.07-0.8-0.46-0.77-0.96c0.03-0.56,0.54-0.36,0.86-0.36c0.8-0.02,1.61-0.01,2.42-0.01c0.77,0,1.54-0.03,2.31,0.01 c0.34,0.03,0.9-0.27,0.93,0.42C159.42,122.03,159.03,122.36,158.49,122.38z M158.71,119.3c-0.87-0.02-1.71,0-2.56,0 c-0.88,0-1.78-0.02-2.67,0c-0.46,0.01-0.65-0.18-0.65-0.64c0.02-0.45,0.12-0.68,0.62-0.68c1.77,0.01,3.55,0.02,5.33,0 c0.48-0.01,0.63,0.18,0.64,0.64C159.43,119.17,159.21,119.32,158.71,119.3z M159.65,115.84c-0.13,0.43-0.48,0.37-0.81,0.37 c-0.88,0.01-1.78,0-3.12,0c-1.57,0.35-3.29,0.18-4.05-2.17c-0.21-0.6-0.9-1.04-1.29-1.6c-2.09-2.85-2.07-5.95,0.04-8.55 c2.1-2.57,5.71-3.41,8.73-2.08c3.22,1.42,6.18,6.09,2.85,10.51C161.16,113.44,160.03,114.39,159.65,115.84z"></path> <path class="st0" d="M99.78,104.88c-0.28-0.45-0.5-1.01-1.15-0.45c-0.58,0.46-0.99,0.45-1.28-0.3c-0.31-0.75-0.77-0.49-1.25-0.2 c-0.46,0.29-0.97,0.56-0.44,1.19c0.57,0.67,0.26,1.05-0.39,1.35c-0.31,0.14-0.59,0.36-0.31,0.75c0.28,0.38,0.34,0.92,0.93,1.1 c0.2-0.1,0.42-0.18,0.62-0.33c0.49-0.4,0.83-0.32,1.06,0.27c0.29,0.73,0.71,0.72,1.31,0.31c0.54-0.35,0.96-0.63,0.4-1.29 c-0.49-0.56-0.25-0.95,0.33-1.18C100.41,105.79,100.08,105.35,99.78,104.88z M99.14,105.8c-0.83,0.37-1.09,0.86-0.43,1.63 c0.19,0.22,0.31,0.46-0.07,0.7c-0.36,0.21-0.54,0.08-0.66-0.23c-0.38-0.91-0.93-0.99-1.66-0.37c-0.21,0.18-0.46,0.29-0.67-0.09 c-0.18-0.32-0.12-0.49,0.17-0.71c0.34-0.22,0.87-0.28,0.91-0.87c-0.16-0.25-0.3-0.49-0.44-0.72c-0.18-0.26-0.29-0.48,0.05-0.71 c0.32-0.21,0.53-0.14,0.68,0.19c0.37,0.82,0.86,1.1,1.63,0.42c0.24-0.22,0.49-0.28,0.7,0.07 C99.53,105.41,99.46,105.67,99.14,105.8z"></path> <path class="st0" d="M109.93,97.42c-0.82,0.01-1.47,0.46-1.45,1.44c0.02,0.9,0.58,1.34,1.39,1.34c0.87,0.02,1.32-0.5,1.4-1.37 C111.22,97.98,110.77,97.4,109.93,97.42z M109.79,99.71c-0.52-0.07-0.77-0.41-0.79-0.89c-0.02-0.6,0.38-0.86,0.93-0.85 c0.51,0.01,0.84,0.31,0.81,0.84C110.71,99.39,110.35,99.65,109.79,99.71z"></path> <path class="st0" d="M113.05,98.04c-0.86-0.07-1.4,0.46-1.46,1.3c-0.06,0.85,0.45,1.45,1.27,1.52c0.86,0.06,1.44-0.44,1.53-1.4 C114.39,98.59,113.86,98.11,113.05,98.04z M112.93,100.28c-0.52-0.03-0.84-0.3-0.8-0.86c0.04-0.52,0.33-0.88,0.85-0.87 c0.57,0.02,0.83,0.43,0.91,0.96C113.78,100.06,113.44,100.3,112.93,100.28z"></path> <path class="st0" d="M110.88,94.35c-0.96,0-1.51,0.5-1.54,1.31c-0.03,0.77,0.36,1.42,1.29,1.44c0.92,0.02,1.48-0.48,1.51-1.36 C112.19,94.89,111.64,94.42,110.88,94.35z M110.72,96.6c-0.59-0.02-0.89-0.36-0.84-0.94c0.05-0.52,0.37-0.82,0.88-0.81 c0.59,0.03,0.77,0.48,0.89,0.92C111.54,96.35,111.23,96.62,110.72,96.6z"></path> <path class="st0" d="M113.96,95.02c-0.9-0.03-1.49,0.49-1.52,1.39c-0.04,0.87,0.54,1.3,1.39,1.38c0.87-0.01,1.4-0.53,1.44-1.32 C115.32,95.67,114.85,95.05,113.96,95.02z M113.81,97.28c-0.53-0.03-0.83-0.37-0.84-0.85c-0.01-0.54,0.31-0.9,0.91-0.88 c0.52,0.01,0.79,0.32,0.87,0.82C114.64,96.89,114.43,97.29,113.81,97.28z"></path> <path class="st0" d="M101.67,100.02c-0.6,0.21-1.47,0.42-1.55,1.22c-0.03,0.36,0.29,1.21,0.88,1.03c0.61-0.2,1.35-0.48,1.67-1.23 C102.33,100.66,102.34,99.8,101.67,100.02z M101.11,101.62c-0.26,0.01-0.42-0.15-0.37-0.36c0.1-0.38,0.49-0.47,0.82-0.6 c0.18-0.09,0.32,0,0.33,0.2C101.92,101.4,101.37,101.36,101.11,101.62z"></path> <path class="st0" d="M105.68,97.6c-0.61,0.21-1.51,0.4-1.55,1.27c-0.01,0.36,0.29,1.15,0.83,0.97c0.62-0.21,1.39-0.46,1.66-1.26 C106.31,98.19,106.27,97.42,105.68,97.6z M105.08,99.19c-0.16,0.09-0.33-0.07-0.35-0.21c-0.03-0.53,0.46-0.56,0.77-0.75 c0.25-0.14,0.33,0.12,0.44,0.3C105.81,98.93,105.4,99.02,105.08,99.19z"></path> <path class="st0" d="M155.69,108.31c1.51,0.01,2.5,0.26,3.36,0.83c0.28,0.2,1.02,0.35,0.63,0.89c-0.32,0.43-0.61,1.28-1.59,0.58 c-1.23-0.86-2.67-0.86-3.89,0.01c-0.89,0.63-1.18-0.06-1.53-0.48c-0.55-0.7,0.3-0.8,0.61-1 C154.13,108.56,155.11,108.29,155.69,108.31z"></path> </g> <path class="st1" d="M131.81,65.48c-0.74-0.52-1.49-0.86-1.97-1.43c-0.36-0.41,0.26-0.85,0.52-1.21c2.7-3.99,5.98-7.5,8.98-11.24 c0.92-1.14,1.79-2.32,2.71-3.47c0.24-0.3,0.57-0.71,1.01-0.45c0.47,0.31,0.13,0.8-0.08,1.08c-3.66,4.94-6.36,10.51-10.06,15.42 C132.58,64.64,132.2,65.04,131.81,65.48z"></path> <path class="st1" d="M132.35,66.15c2.87-3.54,5.02-7.21,7.29-10.83c1.61,2.21,1.58,4.74-0.09,6.76c-0.87,1.04-1.48,2.14-1.64,3.46 c-0.05,0.46-0.21,0.63-0.67,0.63C135.7,66.15,134.18,66.15,132.35,66.15z"></path> <path class="st1" d="M130.18,61.83c-1.44-1.76-1.56-4.15-0.42-6.09c1.17-1.99,4.06-3.54,7.16-2.51 C134.69,56.16,132.23,58.82,130.18,61.83z"></path> <path class="st1" d="M123.97,72.87c0.57-2.13,1.48-4.37,3.55-5.9c0.76-0.56,1.2,0.52,1.83,0.76c0.48,0.18,0.45,0.5,0.3,0.96 c-0.8,2.29-2.36,3.94-4.33,5.27C124.51,74.5,123.94,74.12,123.97,72.87z"></path> <path class="st2" d="M130.25,67.5c-0.26,0.01-2.06-1.26-2-1.38c0.34-0.53,0.53-1.19,1.11-1.51c0.17-0.09,1.98,1.24,1.92,1.36 C131.02,66.56,130.7,67.11,130.25,67.5z"></path> <path class="st3" d="M132.77,67.76c-0.57-0.46-0.71-0.9,0.21-0.94c1.28-0.07,2.57-0.04,3.85-0.02c0.82,0.02,0.73,0.45,0.33,0.94 C135.7,68.34,134.23,68.28,132.77,67.76z"></path> <path class="st4" d="M137.17,68.01c0.52,0.6,0.27,0.9-0.4,0.92c-1.26,0.03-2.54,0.06-3.78-0.01c-0.85-0.06-0.91-0.45-0.23-0.94 C134.23,67.86,135.7,67.78,137.17,68.01z"></path> <path class="st5" d="M126.81,47.4c1.21,1.58,2.44,3.16,3.65,4.74c-0.11,0.08-0.25,0.2-0.37,0.28c-1.22-1.57-2.46-3.15-3.66-4.72 C126.55,47.6,126.68,47.49,126.81,47.4z"></path> <path class="st6" d="M134.97,50.98c-0.25-1.92-0.38-3.84-0.09-5.78C135.19,47.11,135.2,49.04,134.97,50.98z"></path> <path class="st7" d="M134.9,69.25c0.45,0.13,1.26-0.27,1.22,0.55c-0.03,0.63-0.79,0.39-1.22,0.39c-0.45,0-1.19,0.26-1.22-0.39 C133.64,68.98,134.45,69.38,134.9,69.25z"></path> <path class="st8" d="M126.17,60.67c-1.24,0.58-2.47,1.18-3.79,1.55c-0.05-0.13-0.11-0.26-0.15-0.38c1.21-0.48,2.42-0.97,3.62-1.44 C126.16,60.27,126.21,60.42,126.17,60.67z"></path> <path class="st8" d="M143.86,60.4c1.21,0.46,2.41,0.96,3.62,1.44c-0.05,0.13-0.11,0.26-0.16,0.38c-1.31-0.37-2.55-0.96-3.79-1.55 C143.48,60.42,143.54,60.27,143.86,60.4z"></path> <path class="st9" d="M145.23,54.78c-1.03,0.32-2.01,0.86-3.13,0.82c0.75-0.66,1.67-0.85,2.58-1.07 C144.94,54.46,145.23,54.31,145.23,54.78z"></path> <path class="st10" d="M125.19,55.02c-0.88-0.2-1.72-0.46-2.51-0.89c0.03-0.17,0.18-0.18,0.29-0.27c0.96,0.17,1.87,0.5,2.76,0.91 C125.63,55.02,125.36,54.91,125.19,55.02z"></path> <path class="st9" d="M125.19,55.02c0.12-0.2,0.33-0.21,0.54-0.25c0.69,0.12,1.34,0.29,2.18,0.87 C126.71,55.77,125.98,55.26,125.19,55.02z"></path> <path class="st11" d="M137.17,68.01c-1.47-0.01-2.94-0.01-4.4-0.02c0-0.07,0.01-0.17,0.01-0.23c1.46-0.01,2.92-0.02,4.39-0.02 C137.17,67.82,137.17,67.93,137.17,68.01z"></path> <path class="st10" d="M145.23,54.78c-0.12-0.21-0.34-0.22-0.55-0.24c0.64-0.35,1.32-0.58,2.04-0.67c0.1,0.09,0.26,0.09,0.29,0.27 C146.47,54.46,145.86,54.64,145.23,54.78z"></path> <path class="st12" d="M143.86,60.4c-0.12,0.09-0.23,0.18-0.33,0.27c-0.45-0.06-0.84-0.21-1.37-0.67 C142.98,59.8,143.41,60.13,143.86,60.4z"></path> <path class="st12" d="M126.17,60.67c-0.11-0.09-0.21-0.18-0.32-0.27c0.43-0.28,0.87-0.56,1.51-0.46 C127.1,60.55,126.59,60.55,126.17,60.67z"></path> <path class="st13" d="M147.01,54.13c-0.09-0.09-0.19-0.18-0.29-0.27c0.28-0.09,0.67-0.41,0.82-0.09 C147.71,54.16,147.23,54.05,147.01,54.13z"></path> <path class="st13" d="M122.97,53.86c-0.1,0.09-0.19,0.18-0.29,0.27c-0.23-0.08-0.7,0.03-0.52-0.36 C122.3,53.45,122.7,53.77,122.97,53.86z"></path> <path class="st14" d="M134.29,211.59c-3.42-0.08-6.81-0.51-10.05-1.73c-1.03-0.39-2.02-0.87-2.84-1.63 c-0.93-0.87-1.1-1.88-0.59-3.01c0.45-1,1.51-1.49,2.78-1.29c1.22,0.22,2.25,0.89,3.35,1.41c3.06,1.43,6.24,2.02,9.62,1.61 c4.12-0.51,7.27-3.16,8.01-6.81c0.56-2.8-0.31-4.83-2.76-6.32c-2.55-1.53-5.43-2.18-8.23-3.03c-2.64-0.79-5.31-1.55-7.73-2.95 c-5.68-3.3-6.54-9.8-1.86-14.42c3.91-3.82,8.79-4.71,14.02-4.3c2.36,0.19,4.68,0.65,6.86,1.6c0.87,0.39,1.69,0.84,2.37,1.5 c0.68,0.69,1.04,1.49,0.65,2.45c-0.37,0.9-1.11,1.36-2.07,1.48c-1.35,0.17-2.45-0.43-3.57-1.04c-3.12-1.68-6.4-2.05-9.82-1.17 c-1.45,0.36-2.73,1.09-3.66,2.29c-1.82,2.31-1.44,5.22,0.87,7c1.76,1.33,3.83,1.97,5.88,2.62c2.33,0.75,4.66,1.45,6.98,2.21 c0.58,0.2,1.14,0.45,1.7,0.7c3.75,1.62,6.68,4.02,7.09,8.4c0.43,4.66-1.46,8.35-5.2,11.08 C142.59,210.79,138.53,211.53,134.29,211.59z"></path> <path class="st1" d="M261.62,190.28c0-5.91,0-11.81,0.01-17.72c0-2.24,0.94-3.26,3.14-3.28c5.99-0.04,11.98-0.04,17.97-0.01 c1.96,0.01,2.96,0.9,2.94,2.48c-0.02,1.14-0.6,1.83-1.64,2.14c-0.67,0.21-1.36,0.22-2.06,0.22c-4.4-0.01-8.8,0.02-13.2-0.01 c-0.79-0.02-1.02,0.2-1.01,1.01c0.04,3.91,0.04,7.82,0,11.73c-0.01,0.8,0.2,1.03,1.01,1.01c4.08-0.04,8.15-0.02,12.22-0.01 c2.26,0,3.42,0.84,3.4,2.43c-0.02,1.59-1.18,2.41-3.45,2.41c-4.04,0.02-8.07,0.03-12.1-0.02c-0.87-0.02-1.07,0.23-1.07,1.09 c0.04,3.87,0.06,7.74-0.01,11.59c-0.02,0.99,0.31,1.13,1.17,1.13c4.36-0.04,8.72-0.02,13.08-0.03c0.69,0,1.39,0.01,2.06,0.23 c1.05,0.34,1.6,1.04,1.62,2.17c0.01,1.12-0.49,1.86-1.54,2.22c-0.54,0.21-1.1,0.25-1.68,0.25c-5.78,0-11.58,0.01-17.36-0.01 c-2.54-0.01-3.47-0.94-3.48-3.43C261.62,202.03,261.62,196.16,261.62,190.28z"></path> <path class="st1" d="M230.32,190.27c0-5.9-0.01-11.82,0-17.72c0-2.27,0.96-3.26,3.28-3.28c5.9-0.03,11.82-0.03,17.71,0 c2.07,0.01,3.09,0.88,3.06,2.5c-0.01,1.09-0.55,1.77-1.54,2.1c-0.66,0.23-1.36,0.26-2.04,0.26c-4.41-0.01-8.8,0.02-13.21-0.01 c-0.78-0.02-1.13,0.11-1.12,1.02c0.05,3.91,0.04,7.82,0,11.73c-0.01,0.83,0.24,1.01,1.02,1c4.08-0.03,8.14-0.02,12.22-0.01 c2.25,0,3.4,0.85,3.38,2.46c-0.03,1.53-1.18,2.38-3.35,2.38c-4.03,0.02-8.06,0.02-12.09-0.01c-0.84-0.03-1.21,0.09-1.19,1.08 c0.07,3.83,0.06,7.67,0.01,11.5c-0.01,0.92,0.18,1.23,1.18,1.21c4.35-0.06,8.71-0.02,13.08-0.03c0.74,0,1.47,0.01,2.17,0.27 c0.99,0.37,1.48,1.08,1.48,2.14c0.01,1.07-0.45,1.79-1.43,2.19c-0.58,0.22-1.18,0.27-1.8,0.27c-5.78,0-11.58,0.01-17.36-0.01 c-2.53-0.01-3.46-0.94-3.46-3.45C230.31,202.01,230.32,196.13,230.32,190.27z"></path> <path class="st14" d="M52.75,190.22c0-5.86,0-11.74,0-17.6c0-2.36,0.94-3.34,3.32-3.35c5.91-0.03,11.81-0.03,17.73,0 c2.05,0.01,3.05,0.92,3,2.55c-0.02,1.08-0.59,1.74-1.57,2.07c-0.67,0.22-1.36,0.24-2.06,0.23c-4.4-0.01-8.81,0.03-13.21-0.01 c-0.86-0.02-1.09,0.2-1.08,1.07c0.05,3.86,0.05,7.74,0,11.61c-0.01,0.86,0.2,1.09,1.07,1.08c3.96-0.05,7.91-0.02,11.85-0.02 c0.29,0,0.57,0,0.86,0.01c1.78,0.07,2.82,0.95,2.85,2.37c0.01,1.48-1.04,2.43-2.9,2.46c-3.59,0.05-7.18,0.02-10.76,0.02 c-2.96,0-2.96,0-2.96,2.96c0,3.16,0.09,6.29-0.03,9.42c-0.05,1.24,0.36,1.43,1.48,1.42c4.28-0.07,8.56-0.02,12.83-0.03 c0.7,0,1.4,0.03,2.05,0.25c0.98,0.33,1.54,1.02,1.55,2.09c0.04,1.11-0.43,1.88-1.47,2.26c-0.55,0.21-1.11,0.27-1.68,0.27 c-5.83,0-11.66,0.01-17.48-0.01c-2.52-0.01-3.42-0.96-3.42-3.51C52.75,201.96,52.75,196.09,52.75,190.22z"></path> <path class="st14" d="M99.45,202.98c1.89-4.55,3.67-8.83,5.45-13.1c2.5-6.05,5.02-12.09,7.53-18.14c0.68-1.64,1.64-2.8,3.6-2.72 c1.94,0.07,2.92,1.22,2.56,3.1c-0.1,0.44-0.24,0.87-0.42,1.28c-5.07,11.85-10.15,23.7-15.21,35.54c-0.6,1.39-1.4,2.49-3.06,2.63 c-1.88,0.16-3.01-0.48-3.83-2.34c-1.76-4.02-3.47-8.07-5.2-12.12c-3.3-7.68-6.6-15.38-9.91-23.07c-0.15-0.38-0.32-0.75-0.45-1.12 c-0.63-1.77-0.35-2.88,0.86-3.53c1.47-0.79,3.48-0.37,4.35,0.98c0.45,0.68,0.76,1.45,1.08,2.19c3.99,9.6,7.98,19.22,11.97,28.84 C98.96,201.84,99.15,202.29,99.45,202.98z"></path> <path class="st1" d="M177.08,191.9c0,5.5,0.01,11,0,16.5c-0.01,2.68-2.52,4.1-4.86,2.76c-1.01-0.58-1.29-1.48-1.29-2.58 c0.01-5.13,0.01-10.28,0.01-15.41c0-5.99-0.02-11.97,0.02-17.97c0.01-0.85-0.2-1.1-1.07-1.08c-2.76,0.05-5.54,0.04-8.31,0 c-1.72-0.02-2.66-0.66-2.92-1.87c-0.3-1.29,0.27-2.36,1.56-2.75c0.46-0.14,0.96-0.21,1.44-0.22c8.23-0.02,16.47,0,24.7-0.02 c0.58,0,1.15,0.07,1.67,0.29c0.99,0.38,1.48,1.13,1.46,2.18c0,1.05-0.53,1.78-1.51,2.13c-0.61,0.23-1.26,0.28-1.93,0.27 c-2.65-0.01-5.29,0.03-7.94-0.01c-0.81-0.02-1.02,0.23-1.02,1.02C177.08,180.72,177.08,186.31,177.08,191.9z"></path> <path class="st15" d="M213.57,79.69c-3.04-0.86-6.13-1.09-9.25-0.97c-0.06-0.46,0.23-0.69,0.38-0.96 c3.74-6.24,5.05-12.92,3.49-20.07c-3.21-14.74-16.01-23.89-31.02-22.16c-6.5,0.75-12,3.7-16.55,8.4c-0.27,0.28-0.67,0.53-0.35,1.03 c0.96,1.48,1.67,3.09,2.49,4.75c0.3-0.35,0.51-0.59,0.72-0.85c5.04-5.93,11.43-8.69,19.24-8.03c16.39,1.36,25.83,19.16,17.72,33.45 c-1.9,3.35-4.39,6.09-7.9,7.92c-4.86,2.55-8.5,6.39-11.11,11.21c-0.17,0.31-0.24,0.74-0.63,0.94 c-10.57-21.07-39.55-20.22-49.41-1.91c-0.2-0.41-0.38-0.82-0.57-1.21c-2.52-5.31-6.32-9.46-11.38-12.42 c-0.9-0.52-1.69-1.12-2.39-1.87c-5.1-5.48-6.95-11.91-5.8-19.26c1.93-12.13,13.89-20.65,25.89-18.44 c14.44,2.66,22.52,17.23,17.13,30.89c-0.15,0.37-0.36,0.73-0.23,1.17c0.62,2.02,1.4,3.97,2.53,5.81 c6.47-8.96,6.92-22.45-1.09-32.75c-8.06-10.37-21.99-13.8-33.82-8.23c-7.35,3.45-12.26,9.15-14.81,16.84 c-2.55,7.7-1.61,15.11,2.2,22.28c-2.5-0.17-4.81-0.23-7.13,0.05c-16.29,2.06-27.4,17.86-23.77,33.84 c2.88,12.81,14.19,21.82,27.38,21.84c8.54,0.01,15.55-3.33,21.14-9.75c0.31-0.36,0.72-0.68,0.41-1.26 c-0.86-1.74-1.45-3.58-1.99-5.46c-0.51,0.18-0.61,0.61-0.81,0.93c-1.42,2.17-3.13,4.07-5.18,5.64c-7.08,5.41-17.04,6.04-24.97,1.39 c-8.31-4.9-11.96-12.36-11.03-21.89c1.08-11.02,10.26-19.48,21.15-20.09c12.53-0.7,24.27,9.69,23.66,23.04 c-0.08,1.55-0.36,3.08-0.23,4.63c1.01,10.91,6.36,18.87,16.15,23.79c0.65,0.32,0.97,0.74,1.18,1.39c0.8,2.61,1.62,5.21,2.5,7.79 c0.27,0.81,0.29,1.56,0.11,2.37c-0.79,3.45-1.72,6.88-2.28,10.36c-0.35,2.05-1.13,2.94-3.26,3.3c-4.1,0.68-8.04,2.02-11.46,4.57 c-0.86,0.63-1.67,1.33-2.14,2.26c18.28-6.14,36.48-6.24,54.59,0.03c-0.66-1.22-1.9-2.36-4.01-3.53c-3.04-1.7-6.36-2.74-9.75-3.43 c-0.8-0.16-1.24-0.37-1.39-1.31c-0.64-3.69-1.41-7.35-2.13-11.02c-0.19-0.91-0.45-1.8-0.2-2.76c0.78-3.08,1.55-6.16,2.26-9.25 c0.18-0.77,0.54-1.21,1.26-1.63c9.39-5.47,14.32-13.69,14.46-24.55c0.18-12.77,10.32-22.75,23.06-22.41 c14.52,0.42,24.76,13.77,21.4,27.87c-2.16,9.01-9.51,15.64-18.79,16.89c-9.66,1.34-18.29-2.94-22.87-11.32 c-0.19-0.36-0.39-0.72-0.67-1.24c-0.71,1.84-1.27,3.51-2.21,4.99c-0.55,0.86-0.34,1.43,0.2,2.14c6.57,8.4,15.12,12.09,25.72,10.87 c13.01-1.5,22.94-11.5,24.42-24.45C235.4,96.13,226.87,83.45,213.57,79.69z M172.61,121.58c-2.38,2.89-5.52,4.8-9.01,6.07 c-0.64,0.24-0.94,0.52-1.03,1.26c-0.49,3.96-1.11,7.9-1.59,11.87c-0.25,1.92,0.32,3.79,0.53,5.69c0.31,2.83,0.7,5.66,1.08,8.48 c0.09,0.74,0.05,1.06-0.91,0.98c-3.48-0.35-6.99-0.4-10.49-0.1c-0.85,0.06-1.09-0.08-0.92-1.04c0.74-3.96,1.37-7.94,2.03-11.92 c0.22-1.36-0.27-2.67-0.47-3.97c-0.47-3.1-1.03-6.18-1.5-9.29c-0.14-0.84-0.44-1.26-1.36-1.53c-9.07-2.68-15.22-10.37-15.69-19.53 c-0.54-10.33,4.56-19.18,13.14-22.8c2.72-1.15,5.67-1.7,8.96-1.71c9.4,0.23,16.65,4.17,20.52,12.94 C179.72,105.7,178.8,114.09,172.61,121.58z"></path> <path class="st14" d="M27.88,169.49c-5.37-0.46-10.74-0.15-16.11-0.19c-2.05-0.01-2.99,1.11-3,3.19c-0.01,5.91,0,11.82,0,17.72 c0,5.99-0.01,11.98,0,17.98c0.01,2.01,0.95,3.13,2.93,3.12c5.65-0.04,11.33,0.38,16.97-0.23c5.57-0.6,10.3-2.94,13.72-7.54 c3.09-4.16,4.11-8.96,4.04-14.05C46.28,178.63,38.67,170.43,27.88,169.49z M38.32,198.04c-2.17,5.16-6.19,7.93-11.66,8.61 c-3.65,0.47-7.33,0.14-10.97,0.25c-0.86,0.01-0.76-0.51-0.76-1.05c0-5.2,0-10.42,0-15.64c0-5.12,0-10.26,0.01-15.39 c0-0.47-0.23-1.12,0.68-1.1c3.98,0.12,7.99-0.3,11.94,0.41c6.65,1.18,11.11,5.84,12.04,12.52 C40.11,190.56,39.86,194.38,38.32,198.04z"></path> <path class="st1" d="M224.18,207.79c-0.55-0.66-1.21-1.21-1.85-1.79c-4.79-4.41-9.6-8.82-14.7-13.49c0.89,0,1.4,0,1.91,0 c3.13-0.06,6.14-0.53,8.99-1.94c5.97-2.95,7.84-12.77,1.65-17.55c-2.52-1.94-5.35-3.13-8.47-3.49c-4.99-0.56-10.02-0.2-15.03-0.22 c-1.9-0.01-2.81,1.11-2.81,3.1c-0.01,6.35,0,12.71,0,19.07c0,5.7,0.01,11.41-0.01,17.12c0,1.09,0.3,2.01,1.3,2.57 c2.34,1.34,4.86-0.1,4.87-2.79c0-4.76-0.01-9.53,0.01-14.31c0-0.32-0.18-0.72,0.2-1.04c0.77,0.71,1.52,1.38,2.27,2.07 c5.53,5.06,11.08,10.12,16.59,15.19c1.13,1.04,2.38,1.57,3.91,1.16C224.89,210.92,225.43,209.28,224.18,207.79z M200.77,188.65 c-0.73,0.01-0.76-0.36-0.74-0.9c0.01-2.24,0.01-4.47,0.01-6.71c0-2.17,0.01-4.32-0.03-6.49c0-0.6,0.15-0.87,0.82-0.85 c3.12,0.1,6.26-0.16,9.39,0.19c1.3,0.14,2.53,0.52,3.71,1.13c4.71,2.46,4.58,7.36,2.79,10.46c-1.34,2.33-3.75,2.92-6.19,3.05 C207.28,188.7,204.02,188.58,200.77,188.65z"></path> <path class="st1" d="M188.08,57.4c0.1-0.4,0.42-0.88-0.08-1.24c-0.38-0.29-0.79-0.09-1.15,0.09c-0.59,0.31-1.15,0.25-1.76,0.04 c-0.55-0.19-1.12-0.28-1.67-0.32c-4.9-0.23-9.5,4.36-9.34,9.29c0.12,3.04,2.3,4.86,5.32,4.4c1.41-0.2,2.62-0.83,3.61-1.87 c0.46,1.49,1.15,1.99,2.66,1.96c0.82-0.02,1.62-0.2,2.35-0.59c2.25-1.23,3.67-3.15,4.69-5.43c2.8-6.22-0.6-12.52-7.3-13.61 c-5.91-0.96-12.3,2.26-15.14,7.69c-2.1,4.01-2.59,8.15-0.27,12.23c2.75,4.83,8.78,6.78,14.43,4.78c1.87-0.66,3.67-1.53,5.07-3.04 c0.32-0.35,0.67-0.77,0.24-1.29c-0.39-0.48-0.85-0.36-1.3-0.07c-0.32,0.18-0.62,0.38-0.93,0.59c-1.57,1.04-3.25,1.83-5.11,2.23 c-4.67,1.01-9.02-1.43-10.55-5.95c-1.6-4.71,0.9-10.83,5.58-13.7c2.48-1.52,5.16-2.02,7.96-1.33c2.8,0.7,4.62,2.58,5.23,5.4 c0.74,3.35,0.01,6.4-2.35,8.94c-0.59,0.64-1.45,1.4-2.33,0.87c-0.92-0.56-0.24-1.57-0.04-2.34 C186.61,62.56,187.38,59.99,188.08,57.4z M184.64,60.34c-0.42,1.44-0.74,2.91-1.4,4.27c-0.53,1.08-1.21,2.02-2.34,2.54 c-2.31,1.04-4.03-0.12-3.92-2.61c0.14-3.31,2.28-6.03,5.07-6.46c0.32-0.06,0.65-0.06,0.97-0.06 C184.98,58.17,185.18,58.46,184.64,60.34z"></path> <path class="st1" d="M120.94,102.55c-0.5-2.15-1.66-3.96-2.78-5.81c-1.59-2.6-3.7-4.7-6.25-6.41c-2.57-1.72-7.89-0.08-7.53,3.52 c0.06,0.66-0.38,1.01-0.92,1.31c-1.78,1.06-3.57,2.12-5.32,3.24c-0.62,0.4-1.15,0.4-1.82,0.17c-3.12-1.07-6.35,1.23-6.36,4.56 c-0.02,3.09,0.99,5.92,2.44,8.59c1.07,1.96,2.21,3.91,3.94,5.39c2.25,1.92,5.09,1.04,5.9-1.79c0.29-1.01,0.21-2.02,0.27-2.89 c0.02-2.73-0.01-2.75,0.63-3.47c1.95-2.17,4.38-3.61,7.15-4.44c0.85-0.25,1.64-0.13,2.44,0.4c1.22,0.81,2.56,1.36,3.98,1.77 C119.36,107.48,121.44,104.65,120.94,102.55z M118.8,104.78c-0.81,0.73-1.74,0.55-2.63,0.14c-0.9-0.41-1.82-0.75-2.62-1.29 c-1.35-0.92-2.69-0.92-4.16-0.42c-2.89,1.01-5.38,2.58-7.49,4.84c-1.14,1.19-0.93,2.6-0.9,3.82c-0.03,1.11,0.05,2.06-0.21,2.97 c-0.49,1.87-2.06,2.4-3.49,1.09c-1.74-1.6-2.81-3.68-3.91-5.7c-1.02-1.83-1.56-3.84-1.87-5.9c-0.27-1.7,0.26-3.01,1.67-4.02 c0.82-0.59,1.65-0.81,2.6-0.3c1.08,0.59,2.07,0.4,3.1-0.25c1.86-1.17,3.74-2.28,5.61-3.41c0.87-0.51,1.35-1.22,1.41-2.26 c0.17-2.26,2.72-3.63,4.77-2.59c2.5,1.25,4.33,3.25,5.84,5.56c1.02,1.57,2.02,3.14,2.68,4.92 C119.58,103,119.67,103.97,118.8,104.78z"></path> <path class="st1" d="M217.66,101.07c-2.93-2.39-5.85-4.77-8.83-7.1c-1.21-0.95-2.45-0.75-3.43,0.46 c-3.77,4.66-7.52,9.33-11.26,13.99c-1.09,1.33-0.9,2.5,0.44,3.57c2.76,2.2,5.52,4.41,8.26,6.65c1.4,1.14,2.54,1.08,3.67-0.31 c3.77-4.65,7.52-9.32,11.28-13.98c0.37-0.46,0.65-0.94,0.62-1.57C218.47,102.1,218.19,101.5,217.66,101.07z M203.97,117.68 c-2.89-2.29-5.76-4.65-8.65-6.95c-0.78-0.62-0.27-1.09,0.12-1.63c0.44-0.65,0.77-0.42,1.25-0.04c2.83,2.32,5.7,4.6,8.54,6.89 c0.27,0.22,0.64,0.38,0.68,0.75C205.85,117.57,204.62,118.19,203.97,117.68z M214.96,105.59c-2.65,3.29-5.29,6.58-7.93,9.89 c-0.39,0.48-0.61,0.55-1.14,0.13c-2.83-2.32-5.67-4.61-8.55-6.86c-0.77-0.62-0.84-1.03-0.18-1.8c2.59-3.14,5.12-6.33,7.64-9.52 c0.46-0.58,0.77-0.6,1.35-0.14c2.89,2.38,5.81,4.71,8.72,7.06c0.21,0.16,0.51,0.3,0.51,0.69 C215.26,105.2,215.11,105.39,214.96,105.59z M216.12,104.11c-0.41,0.32-0.63-0.22-0.89-0.41c-2.88-2.3-5.74-4.64-8.62-6.93 c-0.43-0.34-0.9-0.57-0.28-1.19c0.5-0.51,0.88-1.06,1.69-0.41c2.03,1.68,4.09,3.31,6.15,4.96c0.79,0.62,1.58,1.27,2.37,1.91 c0.26,0.2,0.48,0.44,0.45,0.92C216.87,103.38,216.52,103.79,216.12,104.11z"></path> <path class="st16" d="M163.32,99.56c-0.57-0.06-0.94-0.31-1.14-0.73c-0.2-0.43-0.16-0.9,0.18-1.25c1.12-1.14,2.22-2.25,3.38-3.34 c0.46-0.45,1.07-0.37,1.54,0.07c0.48,0.45,0.63,1.04,0.17,1.53c-1.14,1.2-2.35,2.35-3.54,3.51 C163.75,99.5,163.47,99.5,163.32,99.56z"></path> <path class="st16" d="M156.76,93.44c0,0.65,0.01,1.28,0,1.93c0,0.82-0.41,1.34-1.24,1.34c-0.77,0-1.2-0.5-1.2-1.25 c-0.04-1.46-0.04-2.92,0-4.38c0.01-0.75,0.51-1.23,1.24-1.23c0.74,0.03,1.18,0.5,1.2,1.27C156.78,91.89,156.76,92.66,156.76,93.44z "></path> <path class="st16" d="M149.41,98.23c0,0.59-0.25,0.93-0.66,1.16c-0.45,0.26-0.9,0.23-1.25-0.1c-1.17-1.13-2.32-2.27-3.45-3.44 c-0.43-0.44-0.35-0.99,0.04-1.43c0.38-0.44,0.93-0.7,1.41-0.32c1.4,1.1,2.64,2.39,3.79,3.75C149.4,97.97,149.39,98.16,149.41,98.23 z"></path> <path class="st17" d="M200.98,113.64c-0.08,0.23-0.22,0.39-0.45,0.31c-0.37-0.14-0.72-0.36-0.77-0.8 c-0.04-0.18,0.11-0.39,0.37-0.29C200.51,113.01,200.81,113.26,200.98,113.64z"></path> <path class="st18" d="M210.84,98.36c0.63,0.55,1.44,0.9,1.85,1.64c0.17,0.29-0.16,0.57-0.49,0.33c-0.59-0.42-1.13-0.9-1.68-1.36 c-0.11-0.11-0.16-0.28-0.03-0.43C210.59,98.48,210.69,98.44,210.84,98.36z"></path> <path class="st19" d="M164.3,108.68c0.12-4.29-2.89-8-7.19-8.96c-4.13-0.91-8.45,1.25-10.17,5.15c-1.62,3.59-0.67,6.76,1.83,9.55 c1.02,1.14,1.53,2.35,1.44,3.87c-0.06,1.05-0.04,2.12-0.01,3.17c0.06,1.61,1.08,2.65,2.69,2.76c0.77,0.03,1.55,0,2.33,0 c0.74,0,1.47,0.01,2.19,0c1.77-0.07,2.78-1.1,2.8-2.86c0.01-1.02,0.05-2.05-0.01-3.05c-0.07-1.48,0.4-2.67,1.39-3.79 C163.08,112.87,164.23,111,164.3,108.68z M157.56,122.46c-1.05,0.04-2.1,0.02-3.16,0.02c-0.57-0.01-1.14,0.02-1.69-0.04 c-0.5-0.07-0.8-0.47-0.77-0.95c0.04-0.58,0.53-0.37,0.86-0.37c0.81-0.04,1.61-0.02,2.42-0.02c0.77,0,1.54-0.02,2.31,0.02 c0.34,0.02,0.9-0.28,0.93,0.4C158.5,122.12,158.11,122.44,157.56,122.46z M157.79,119.38c-0.86-0.02-1.71-0.01-2.56-0.01 c-0.89,0-1.77-0.01-2.66,0.01c-0.46,0-0.66-0.16-0.66-0.64c0.01-0.43,0.14-0.69,0.61-0.69c1.79,0.01,3.56,0.02,5.35,0 c0.47,0,0.62,0.2,0.63,0.65C158.51,119.25,158.3,119.4,157.79,119.38z M158.73,115.91c-0.12,0.43-0.48,0.37-0.79,0.37 c-0.9,0-1.79,0-3.13,0c-1.57,0.34-3.29,0.18-4.05-2.16c-0.21-0.62-0.89-1.06-1.29-1.62c-2.09-2.83-2.06-5.94,0.05-8.53 c2.09-2.57,5.7-3.41,8.73-2.09c3.23,1.42,6.18,6.08,2.85,10.51C160.23,113.51,159.12,114.47,158.73,115.91z"></path> <path class="st20" d="M98.87,104.95c-0.28-0.45-0.5-1-1.16-0.45c-0.56,0.47-0.99,0.45-1.27-0.28c-0.29-0.77-0.77-0.52-1.25-0.21 c-0.47,0.28-0.98,0.55-0.44,1.18c0.57,0.68,0.26,1.05-0.39,1.37c-0.3,0.14-0.59,0.35-0.3,0.74c0.27,0.38,0.33,0.94,0.92,1.1 c0.2-0.09,0.43-0.18,0.62-0.33c0.5-0.4,0.83-0.31,1.07,0.27c0.28,0.73,0.71,0.72,1.31,0.32c0.54-0.35,0.97-0.63,0.39-1.29 c-0.49-0.56-0.23-0.95,0.34-1.18C99.49,105.87,99.15,105.43,98.87,104.95z M98.22,105.87c-0.83,0.37-1.09,0.86-0.43,1.63 c0.18,0.2,0.32,0.45-0.08,0.7c-0.35,0.22-0.54,0.07-0.66-0.22c-0.37-0.92-0.91-1.01-1.66-0.38c-0.21,0.19-0.46,0.29-0.66-0.08 c-0.17-0.31-0.13-0.5,0.17-0.71c0.32-0.25,0.86-0.29,0.89-0.88c-0.14-0.25-0.29-0.48-0.44-0.71c-0.16-0.27-0.28-0.49,0.06-0.72 c0.32-0.21,0.53-0.13,0.68,0.19c0.36,0.82,0.87,1.1,1.62,0.43c0.26-0.21,0.5-0.27,0.71,0.06 C98.61,105.49,98.54,105.74,98.22,105.87z"></path> <path class="st18" d="M109.01,97.49c-0.82,0.03-1.47,0.48-1.44,1.45c0.01,0.9,0.57,1.34,1.39,1.35c0.86,0.01,1.32-0.54,1.39-1.39 C110.3,98.07,109.84,97.48,109.01,97.49z M108.87,99.79c-0.52-0.07-0.78-0.4-0.79-0.9c-0.01-0.6,0.38-0.86,0.93-0.85 c0.51,0.02,0.83,0.3,0.81,0.85C109.79,99.46,109.43,99.74,108.87,99.79z"></path> <path class="st21" d="M112.14,98.12c-0.86-0.08-1.4,0.46-1.46,1.3c-0.07,0.84,0.44,1.45,1.26,1.5c0.86,0.07,1.45-0.43,1.53-1.38 C113.47,98.66,112.95,98.18,112.14,98.12z M112,100.36c-0.51-0.02-0.84-0.3-0.8-0.86c0.05-0.52,0.33-0.88,0.84-0.86 c0.59,0.01,0.85,0.42,0.91,0.95C112.86,100.13,112.52,100.38,112,100.36z"></path> <path class="st18" d="M109.96,94.41c-0.96,0.02-1.51,0.52-1.54,1.32c-0.03,0.77,0.36,1.44,1.29,1.45c0.93,0.03,1.48-0.47,1.52-1.37 C111.27,94.96,110.74,94.5,109.96,94.41z M109.81,96.68c-0.59-0.02-0.89-0.36-0.84-0.95c0.05-0.52,0.37-0.82,0.87-0.8 c0.59,0.02,0.79,0.47,0.9,0.9C110.63,96.42,110.31,96.69,109.81,96.68z"></path> <path class="st17" d="M113.05,95.1c-0.89-0.02-1.48,0.5-1.53,1.39c-0.04,0.87,0.53,1.3,1.39,1.39c0.88-0.01,1.39-0.53,1.45-1.33 C114.4,95.74,113.93,95.13,113.05,95.1z M112.91,97.35c-0.55-0.02-0.84-0.37-0.86-0.84c-0.01-0.54,0.32-0.91,0.91-0.89 c0.53,0.03,0.8,0.32,0.87,0.82C113.73,96.97,113.51,97.36,112.91,97.35z"></path> <path class="st22" d="M100.76,100.1c-0.61,0.2-1.49,0.41-1.56,1.22c-0.03,0.36,0.29,1.21,0.89,1.03c0.62-0.19,1.34-0.49,1.67-1.24 C101.41,100.74,101.41,99.88,100.76,100.1z M100.2,101.69c-0.26,0.01-0.43-0.14-0.39-0.34c0.11-0.39,0.5-0.49,0.83-0.63 c0.18-0.07,0.32,0.02,0.33,0.21C101,101.49,100.45,101.44,100.2,101.69z"></path> <path class="st21" d="M104.77,97.68c-0.62,0.22-1.53,0.41-1.55,1.28c-0.01,0.34,0.29,1.14,0.81,0.98c0.64-0.22,1.41-0.48,1.67-1.28 C105.39,98.28,105.35,97.49,104.77,97.68z M104.16,99.26c-0.16,0.09-0.34-0.07-0.34-0.22c-0.05-0.52,0.45-0.55,0.77-0.74 c0.24-0.15,0.32,0.11,0.45,0.3C104.89,99,104.48,99.09,104.16,99.26z"></path> <path class="st23" d="M154.77,108.38c1.5,0.01,2.48,0.26,3.35,0.85c0.29,0.19,1.04,0.33,0.63,0.89c-0.31,0.42-0.61,1.27-1.58,0.57 c-1.23-0.87-2.68-0.87-3.9,0c-0.88,0.63-1.16-0.05-1.51-0.5c-0.56-0.7,0.29-0.79,0.6-1C153.21,108.63,154.2,108.38,154.77,108.38z"></path> </g> </svg>