<svg width="330" height="57" viewBox="0 0 330 57" fill="none" xmlns="http://www.w3.org/2000/svg">
<path d="M64.7187 41.38H61.5497V27.3107H64.7187V41.38Z" fill="black"/>
<path d="M80.5835 41.38H77.385L71.5866 32.5401C71.2464 32.0233 71.011 31.6341 70.8802 31.3725H70.8409C70.8932 31.8696 70.9194 32.6284 70.9194 33.6487V41.38H67.927V27.3107H71.3413L76.9239 35.8759C77.179 36.2618 77.4144 36.6444 77.6303 37.0238H77.6695C77.6172 36.6967 77.591 36.0525 77.591 35.091V27.3107H80.5835V41.38Z" fill="black"/>
<path d="M96.458 41.38H93.2596L87.4611 32.5401C87.121 32.0233 86.8856 31.6341 86.7547 31.3725H86.7155C86.7678 31.8696 86.794 32.6284 86.794 33.6487V41.38H83.8016V27.3107H87.2159L92.7985 35.8759C93.0535 36.2618 93.289 36.6444 93.5049 37.0238H93.5441C93.4918 36.6967 93.4656 36.0525 93.4656 35.091V27.3107H96.458V41.38Z" fill="black"/>
<path d="M105.622 41.6253C103.607 41.6253 101.965 40.9712 100.696 39.663C99.4276 38.3483 98.7931 36.6379 98.7931 34.5317C98.7931 32.3079 99.4374 30.5091 100.726 29.1356C102.014 27.762 103.722 27.0752 105.847 27.0752C107.855 27.0752 109.478 27.7325 110.714 29.0473C111.957 30.362 112.578 32.0953 112.578 34.2472C112.578 36.458 111.934 38.2404 110.645 39.5943C109.363 40.9483 107.689 41.6253 105.622 41.6253ZM105.759 29.8027C104.647 29.8027 103.764 30.2213 103.11 31.0586C102.456 31.8892 102.129 32.9914 102.129 34.3649C102.129 35.7581 102.456 36.8603 103.11 37.6713C103.764 38.4824 104.621 38.8879 105.681 38.8879C106.773 38.8879 107.64 38.4955 108.281 37.7106C108.922 36.9191 109.242 35.8235 109.242 34.4238C109.242 32.9652 108.931 31.8304 108.31 31.0193C107.689 30.2082 106.838 29.8027 105.759 29.8027Z" fill="black"/>
<path d="M126.637 27.3107L121.791 41.38H118.2L113.412 27.3107H116.826L119.76 37.1023C119.917 37.6321 120.012 38.0997 120.044 38.5053H120.103C120.149 38.067 120.25 37.5863 120.407 37.063L123.321 27.3107H126.637Z" fill="black"/>
<path d="M139.657 41.38H136.203L135.203 38.2502H130.199L129.208 41.38H125.774L130.895 27.3107H134.653L139.657 41.38ZM134.477 35.817L132.966 31.088C132.854 30.7348 132.776 30.3129 132.73 29.8223H132.652C132.619 30.2344 132.537 30.6432 132.406 31.0487L130.876 35.817H134.477Z" fill="black"/>
<path d="M151.185 40.8796C150.158 41.3767 148.817 41.6253 147.162 41.6253C145.004 41.6253 143.307 40.9908 142.07 39.7219C140.834 38.453 140.216 36.7622 140.216 34.6495C140.216 32.3994 140.909 30.5745 142.296 29.1748C143.689 27.7751 145.495 27.0752 147.712 27.0752C149.085 27.0752 150.243 27.2485 151.185 27.5952V30.6465C150.243 30.084 149.171 29.8027 147.967 29.8027C146.646 29.8027 145.58 30.2181 144.769 31.0487C143.957 31.8794 143.552 33.0044 143.552 34.4238C143.552 35.7843 143.935 36.8701 144.7 37.6811C145.465 38.4857 146.495 38.8879 147.79 38.8879C149.027 38.8879 150.158 38.587 151.185 37.9853V40.8796Z" fill="black"/>
<path d="M156.807 41.38H153.638V27.3107H156.807V41.38Z" fill="black"/>
<path d="M165.961 41.6253C163.946 41.6253 162.304 40.9712 161.036 39.663C159.767 38.3483 159.132 36.6379 159.132 34.5317C159.132 32.3079 159.776 30.5091 161.065 29.1356C162.354 27.762 164.061 27.0752 166.186 27.0752C168.194 27.0752 169.817 27.7325 171.053 29.0473C172.296 30.362 172.917 32.0953 172.917 34.2472C172.917 36.458 172.273 38.2404 170.984 39.5943C169.702 40.9483 168.028 41.6253 165.961 41.6253ZM166.098 29.8027C164.986 29.8027 164.103 30.2213 163.449 31.0586C162.795 31.8892 162.468 32.9914 162.468 34.3649C162.468 35.7581 162.795 36.8603 163.449 37.6713C164.103 38.4824 164.96 38.8879 166.02 38.8879C167.112 38.8879 167.979 38.4955 168.62 37.7106C169.261 36.9191 169.581 35.8235 169.581 34.4238C169.581 32.9652 169.27 31.8304 168.649 31.0193C168.028 30.2082 167.177 29.8027 166.098 29.8027Z" fill="black"/>
<path d="M193.025 30.1303H189.013V41.6192H185.834V30.1303H181.841V27.5499H193.025V30.1303Z" fill="#0FAFD2"/>
<path d="M203.357 41.6192H194.919V27.5499H203.033V30.1303H198.088V33.2601H202.689V35.8306H198.088V39.0487H203.357V41.6192Z" fill="#0FAFD2"/>
<path d="M215.699 41.1189C214.672 41.616 213.331 41.8645 211.677 41.8645C209.518 41.8645 207.821 41.23 206.585 39.9611C205.348 38.6922 204.73 37.0014 204.73 34.8887C204.73 32.6387 205.424 30.8138 206.81 29.4141C208.203 28.0143 210.009 27.3145 212.226 27.3145C213.6 27.3145 214.757 27.4878 215.699 27.8344V30.8857C214.757 30.3232 213.685 30.042 212.481 30.042C211.16 30.042 210.094 30.4573 209.283 31.288C208.472 32.1187 208.066 33.2437 208.066 34.6631C208.066 36.0236 208.449 37.1093 209.214 37.9204C209.979 38.7249 211.009 39.1272 212.304 39.1272C213.541 39.1272 214.672 38.8263 215.699 38.2245V41.1189Z" fill="#0FAFD2"/>
<path d="M230.328 41.6192H227.149V35.8895H221.321V41.6192H218.152V27.5499H221.321V33.1619H227.149V27.5499H230.328V41.6192Z" fill="#0FAFD2"/>
<path d="M246.212 41.6192H243.014L237.215 32.7793C236.875 32.2626 236.64 31.8734 236.509 31.6118H236.47C236.522 32.1089 236.548 32.8676 236.548 33.888V41.6192H233.556V27.5499H236.97L242.553 36.1151C242.808 36.501 243.043 36.8837 243.259 37.263H243.298C243.246 36.936 243.22 36.2917 243.22 35.3302V27.5499H246.212V41.6192Z" fill="#0FAFD2"/>
<path d="M255.376 41.8645C253.361 41.8645 251.719 41.2104 250.451 39.9023C249.182 38.5876 248.547 36.8771 248.547 34.771C248.547 32.5471 249.191 30.7484 250.48 29.3748C251.769 28.0012 253.476 27.3145 255.601 27.3145C257.609 27.3145 259.232 27.9718 260.468 29.2865C261.711 30.6012 262.332 32.3345 262.332 34.4865C262.332 36.6973 261.688 38.4796 260.399 39.8336C259.117 41.1875 257.443 41.8645 255.376 41.8645ZM255.513 30.042C254.401 30.042 253.518 30.4606 252.864 31.2978C252.21 32.1285 251.883 33.2306 251.883 34.6042C251.883 35.9974 252.21 37.0995 252.864 37.9106C253.518 38.7216 254.375 39.1272 255.435 39.1272C256.527 39.1272 257.394 38.7347 258.035 37.9498C258.676 37.1584 258.996 36.0628 258.996 34.6631C258.996 33.2045 258.685 32.0696 258.064 31.2586C257.443 30.4475 256.592 30.042 255.513 30.042Z" fill="#0FAFD2"/>
<path d="M273.056 41.6192H264.677V27.5499H267.846V39.0487H273.056V41.6192Z" fill="#0FAFD2"/>
<path d="M280.394 41.8645C278.38 41.8645 276.738 41.2104 275.469 39.9023C274.2 38.5876 273.566 36.8771 273.566 34.771C273.566 32.5471 274.21 30.7484 275.499 29.3748C276.787 28.0012 278.494 27.3145 280.62 27.3145C282.628 27.3145 284.25 27.9718 285.486 29.2865C286.729 30.6012 287.351 32.3345 287.351 34.4865C287.351 36.6973 286.706 38.4796 285.418 39.8336C284.136 41.1875 282.461 41.8645 280.394 41.8645ZM280.532 30.042C279.42 30.042 278.537 30.4606 277.883 31.2978C277.229 32.1285 276.902 33.2306 276.902 34.6042C276.902 35.9974 277.229 37.0995 277.883 37.9106C278.537 38.7216 279.394 39.1272 280.453 39.1272C281.546 39.1272 282.412 38.7347 283.053 37.9498C283.694 37.1584 284.015 36.0628 284.015 34.6631C284.015 33.2045 283.704 32.0696 283.083 31.2586C282.461 30.4475 281.611 30.042 280.532 30.042Z" fill="#0FAFD2"/>
<path d="M301.243 40.6773C299.87 41.4688 298.163 41.8645 296.122 41.8645C293.859 41.8645 292.073 41.2399 290.765 39.9906C289.463 38.7347 288.812 37.0079 288.812 34.8102C288.812 32.5994 289.525 30.7974 290.951 29.4042C292.377 28.0111 294.274 27.3145 296.642 27.3145C298.133 27.3145 299.448 27.5205 300.586 27.9326V30.9054C299.5 30.2774 298.172 29.9635 296.603 29.9635C295.288 29.9635 294.215 30.3919 293.384 31.2488C292.56 32.0991 292.148 33.2372 292.148 34.6631C292.148 36.1086 292.518 37.2271 293.257 38.0185C294.003 38.8099 295.007 39.2057 296.269 39.2057C297.028 39.2057 297.629 39.0977 298.074 38.8819V36.1347H295.258V33.6035H301.243V40.6773Z" fill="#0FAFD2"/>
<path d="M307.15 41.6192H303.981V27.5499H307.15V41.6192Z" fill="#0FAFD2"/>
<path d="M318.796 41.6192H310.358V27.5499H318.472V30.1303H313.527V33.2601H318.128V35.8306H313.527V39.0487H318.796V41.6192Z" fill="#0FAFD2"/>
<path d="M320.405 41.0796V37.94C320.974 38.4175 321.592 38.7772 322.259 39.0193C322.926 39.2547 323.6 39.3725 324.28 39.3725C324.679 39.3725 325.026 39.3365 325.32 39.2645C325.621 39.1926 325.869 39.0945 326.066 38.9702C326.268 38.8394 326.419 38.6889 326.517 38.5189C326.615 38.3423 326.664 38.1526 326.664 37.9498C326.664 37.6751 326.586 37.4298 326.429 37.214C326.272 36.9981 326.056 36.7986 325.781 36.6155C325.513 36.4324 325.193 36.2558 324.82 36.0857C324.447 35.9156 324.045 35.7423 323.613 35.5657C322.514 35.1078 321.693 34.5486 321.15 33.888C320.614 33.2274 320.346 32.4294 320.346 31.494C320.346 30.7615 320.493 30.1335 320.787 29.6103C321.082 29.0805 321.481 28.6455 321.984 28.3054C322.494 27.9653 323.083 27.7167 323.75 27.5597C324.417 27.3962 325.124 27.3145 325.869 27.3145C326.602 27.3145 327.25 27.3602 327.812 27.4518C328.381 27.5368 328.904 27.6709 329.382 27.8541V30.7876C329.146 30.6241 328.888 30.4802 328.607 30.3559C328.332 30.2317 328.048 30.1303 327.753 30.0518C327.459 29.9668 327.165 29.9046 326.87 29.8654C326.582 29.8261 326.308 29.8065 326.046 29.8065C325.686 29.8065 325.359 29.8425 325.065 29.9144C324.771 29.9798 324.522 30.0747 324.319 30.199C324.117 30.3232 323.96 30.4737 323.848 30.6503C323.737 30.8203 323.682 31.0133 323.682 31.2291C323.682 31.4646 323.744 31.6772 323.868 31.8669C323.992 32.05 324.169 32.2266 324.398 32.3967C324.627 32.5602 324.905 32.7237 325.232 32.8872C325.559 33.0442 325.928 33.2077 326.34 33.3778C326.903 33.6133 327.407 33.8651 327.851 34.1333C328.303 34.3949 328.689 34.6925 329.009 35.0261C329.33 35.3597 329.575 35.7423 329.745 36.174C329.915 36.5991 330 37.0963 330 37.6653C330 38.4502 329.85 39.1108 329.549 39.6472C329.254 40.177 328.852 40.6087 328.342 40.9423C327.832 41.2693 327.237 41.5048 326.556 41.6487C325.883 41.7926 325.17 41.8645 324.417 41.8645C323.646 41.8645 322.91 41.7991 322.21 41.6683C321.517 41.5375 320.915 41.3412 320.405 41.0796Z" fill="#0FAFD2"/>
<path d="M43.5332 2.89014H42.3846V4.00098H43.5332V2.89014Z" fill="#58C8E1"/>
<path d="M36.0668 1.53764L34.4079 2.37891L35.2198 3.97997L36.8787 3.1387L36.0668 1.53764Z" fill="#58C8E1"/>
<path opacity="0.67" d="M43.8556 7.76454L42.2184 7.35547L41.8231 8.93757L43.4604 9.34664L43.8556 7.76454Z" fill="#58C8E1"/>
<path opacity="0.71" d="M40.9374 4.96007L39.1078 3.4458L37.5817 5.28974L39.4113 6.80401L40.9374 4.96007Z" fill="#58C8E1"/>
<path d="M44.8889 5.12207H43.7404V6.23292H44.8889V5.12207Z" fill="#58C8E1"/>
<path d="M33.1956 20.188H1.11859V51.1873H33.1956V20.188Z" fill="white"/>
<path d="M51.1212 25.3086H19.0442V56.3079H51.1212V25.3086Z" fill="white"/>
<path d="M39.2605 11.0753V8.24469H37.6483V9.48102H35.0743V6.99166H36.4306V5.54947H33.4634V2.1582H10.4183V33.1575H42.4953V11.0753H39.2605Z" fill="white"/>
<path opacity="0.8" d="M33.077 20.1494H1V51.1487H33.077V20.1494Z" fill="#58C8E1" stroke="#468FCC" stroke-width="0.5" stroke-miterlimit="10"/>
<path opacity="0.76" d="M51.0025 25.2715H18.9255V56.2708H51.0025V25.2715Z" fill="#58C8E1" stroke="#468FCC" stroke-width="0.5" stroke-miterlimit="10"/>
<path opacity="0.8" d="M39.1418 11.0356V8.20559H37.5346V9.44193H34.9581V6.95195H36.3119V5.50976H33.3447V2.12158H10.2996V33.1209H42.376V11.0356H39.1418Z" fill="#58C8E1" stroke="#468FCC" stroke-width="0.5" stroke-miterlimit="10"/>
<path d="M41.0263 0.728818L39.8113 0.019043L39.1272 1.19616L40.3423 1.90593L41.0263 0.728818Z" fill="#58C8E1"/>
<path d="M42.9509 0.410156H42.3766V0.965268H42.9509V0.410156Z" fill="#58C8E1"/>
<path d="M40.6353 7.75488H40.061V8.30999H40.6353V7.75488Z" fill="#58C8E1"/>
<path d="M42.3766 5.67725H41.8024V6.23236H42.3766V5.67725Z" fill="#58C8E1"/>
<path d="M44.3146 1.17236H43.7404V1.72747H44.3146V1.17236Z" fill="#58C8E1"/>
<path d="M43.8189 0.27002H43.5333V0.548299H43.8189V0.27002Z" fill="#58C8E1"/>
<path d="M42.2011 2.15723H41.9155V2.4355H42.2011V2.15723Z" fill="#58C8E1"/>
<path d="M37.0795 4.58154H36.7939V4.85982H37.0795V4.58154Z" fill="#58C8E1"/>
<path d="M37.6186 6.73877H37.333V7.01705H37.6186V6.73877Z" fill="#58C8E1"/>
<path d="M44.8968 3.50488H44.6112V3.78316H44.8968V3.50488Z" fill="#58C8E1"/>
<path d="M44.6273 0H44.3417V0.278275H44.6273V0Z" fill="#58C8E1"/>
</svg>
